/vscmnt/brussel_pixiu_data/_data_brussel/112/vsc11236/PredSimResults/SUBJ09mtu3D/worker2.mot
version=1
nRows=10
nColumns=50
inDegrees=yes
endheader
                time	         pelvis_tilt	         pelvis_list	     pelvis_rotation	           pelvis_tx	           pelvis_ty	           pelvis_tz	       hip_flexion_r	     hip_adduction_r	      hip_rotation_r	        knee_angle_r	       ankle_angle_r	         mtp_angle_r	       hip_flexion_l	     hip_adduction_l	      hip_rotation_l	        knee_angle_l	       ankle_angle_l	         mtp_angle_l	    lumbar_extension	      lumbar_bending	     lumbar_rotation	 ercspn_r/activation	 intobl_r/activation	 extobl_r/activation	    abd_r/activation	    add_r/activation	hamstrings_r/activation	bifemsh_r/activation	glut_max_r/activation	iliopsoas_r/activation	rect_fem_r/activation	  vasti_r/activation	gastroc_r/activation	 soleus_r/activation	tib_ant_r/activation	 ercspn_l/activation	 intobl_l/activation	 extobl_l/activation	    abd_l/activation	    add_l/activation	hamstrings_l/activation	bifemsh_l/activation	glut_max_l/activation	iliopsoas_l/activation	rect_fem_l/activation	  vasti_l/activation	gastroc_l/activation	 soleus_l/activation	tib_ant_l/activation	
          1.24464809	         -4.15532621	         -0.85437267	          8.19745553	          1.54336364	          0.98966891	         -0.00297840	         28.77910580	         -1.72933783	         -8.85915892	         -6.47335454	          4.04137181	          0.24746731	        -14.30683002	         -2.39465378	         -4.29869471	         -9.66507627	          3.63913266	         36.66140237	        -13.59357424	         -1.18185839	         -7.05388279	          0.02567070	          0.15552091	          0.03098827	          0.01429274	          0.22038263	          0.05549956	          0.12179249	          0.08526347	          0.13426772	          0.01691459	          0.01000000	          0.01413868	          0.01000000	          0.32341060	          0.02829156	          0.01000000	          0.01000000	          0.02792054	          0.01207444	          0.01457925	          0.15240675	          0.01211866	          0.01111510	          0.01000002	          0.01000001	          0.30374168	          0.21918824	          0.01298581	
          1.25709457	         -4.19125899	         -0.96953144	          8.19745900	          1.56324869	          0.98747945	         -0.00234317	         28.67026999	         -1.55748802	         -8.91119850	         -8.20752930	          3.61266919	          0.20948195	        -14.95099033	         -2.72354276	         -4.72252060	        -10.38833991	          2.49530771	         38.23738258	        -13.08203084	         -0.73810080	         -7.23909081	          0.02126042	          0.12880204	          0.02566441	          0.07917467	          0.19117440	          0.06049231	          0.10086825	          0.11099163	          0.11120020	          0.01400862	          0.01000000	          0.01207445	          0.01207441	          0.36277908	          0.02343101	          0.01000000	          0.01000001	          0.02312372	          0.01000004	          0.01207451	          0.12622292	          0.01003665	          0.01000008	          0.01000001	          0.01000002	          0.27379082	          0.19663991	          0.01075481	
          1.26954106	         -4.20867105	         -1.09419613	          8.16281441	          1.58336685	          0.98561514	         -0.00162676	         28.47666862	         -1.37018833	         -8.96640326	         -9.83772723	          3.05321105	          0.20353686	        -15.39368113	         -3.08119878	         -5.16660432	        -11.50951128	          1.23960736	         39.74162200	        -12.56090694	         -0.28332456	         -7.39104818	          0.02416579	          0.10667354	          0.02125520	          0.12854311	          0.20456987	          0.05009966	          0.08353884	          0.15345874	          0.09209574	          0.01160191	          0.01000000	          0.01000003	          0.00999999	          0.40989929	          0.03115822	          0.00999999	          0.01000000	          0.01915101	          0.01000000	          0.01000009	          0.10453753	          0.00999999	          0.01724589	          0.01000002	          0.01000000	          0.22675290	          0.16899856	          0.00999999	
          1.28198754	         -4.20874917	         -1.21894445	          8.09355249	          1.60338717	          0.98427133	         -0.00081814	         28.34108043	         -1.18220838	         -9.03929282	        -11.57849459	          2.47193992	          0.17089424	        -15.52771514	         -3.46601405	         -5.62545258	        -13.18571418	         -0.08866212	         41.02349583	        -12.06994875	          0.17226301	         -7.50692265	          0.03127332	          0.08834676	          0.01760351	          0.17556290	          0.24689686	          0.05046200	          0.06918667	          0.14545345	          0.07627347	          0.01000000	          0.08152521	          0.01000001	          0.01000000	          0.43355458	          0.08114786	          0.01000000	          0.01000000	          0.01586082	          0.03624970	          0.01990438	          0.08657773	          0.01000000	          0.01428305	          0.01000001	          0.01000008	          0.18779620	          0.13996420	          0.00999999	
          1.29443402	         -4.19348915	         -1.34416913	          7.99781268	          1.62311234	          0.98358972	          0.00006662	         28.26057181	         -0.99095058	         -9.09436836	        -13.46747996	          2.21455301	          0.12928390	        -15.27208029	         -3.88753850	         -6.10722800	        -15.52971320	         -1.45750566	         41.87789353	        -11.62699101	          0.62926913	         -7.59029129	          0.02590082	          0.07316858	          0.01457918	          0.20000530	          0.26481447	          0.04815914	          0.05730024	          0.16188096	          0.06316950	          0.01000000	          0.17718399	          0.01000001	          0.01000000	          0.43548817	          0.09609437	          0.01000000	          0.01000000	          0.01313589	          0.11959642	          0.02562267	          0.07170348	          0.00999999	          0.02125479	          0.01000000	          0.01000000	          0.15553236	          0.11591801	          0.00999999	
          1.30688050	         -4.16648013	         -1.45638985	          7.87406879	          1.64238267	          0.98370980	          0.00099539	         28.14028978	         -0.79579041	         -9.12744902	        -15.32559288	          2.34061557	          0.09337956	        -14.56113084	         -4.34095091	         -6.65794293	        -18.63918882	         -2.77372929	         41.90252551	        -11.24760318	          1.07453990	         -7.63780276	          0.02145103	          0.06059804	          0.01207444	          0.20715379	          0.29297573	          0.05089100	          0.04745592	          0.16464497	          0.05231683	          0.01000000	          0.21079476	          0.01000000	          0.01000000	          0.40350158	          0.09562449	          0.01000000	          0.01000000	          0.01087912	          0.17545526	          0.02491172	          0.05938467	          0.00999999	          0.01760331	          0.01000000	          0.00999999	          0.12881153	          0.09600301	          0.00999999	
          1.31932698	         -4.13016225	         -1.53953342	          7.71961529	          1.66113821	          0.98464388	          0.00193512	         27.90523774	         -0.60373398	         -9.13908139	        -17.00477737	          2.81029023	          0.08125904	        -13.38133157	         -4.82704815	         -7.28390769	        -22.50091996	         -4.14584319	         41.01817307	        -10.93668731	          1.49230460	         -7.64495341	          0.01776570	          0.05018715	          0.01000003	          0.20622451	          0.28799548	          0.05576912	          0.03930288	          0.16189743	          0.04332867	          0.01000000	          0.24871046	          0.01000002	          0.01000001	          0.34702249	          0.08514602	          0.01000000	          0.01000000	          0.00999999	          0.23053974	          0.03098827	          0.04931113	          0.00999999	          0.01457908	          0.00999999	          0.00999999	          0.10668139	          0.07950946	          0.01000000	
          1.33177346	         -4.08638939	         -1.57765323	          7.53197674	          1.67936069	          0.98632964	          0.00284832	         27.48521823	         -0.41938757	         -9.10603209	        -18.35490096	          3.50543671	          0.14542051	        -11.76977867	         -5.34323310	         -7.96960660	        -26.98547347	         -5.70532364	         39.17308897	        -10.69463882	          1.86766259	         -7.60661304	          0.01471352	          0.04156488	          0.01000000	          0.20718146	          0.26518330	          0.05979559	          0.03255056	          0.15823197	          0.03588470	          0.01000000	          0.26324368	          0.01000001	          0.01000000	          0.28864176	          0.07051775	          0.02082433	          0.01000001	          0.00999999	          0.26010615	          0.02566443	          0.04083940	          0.00999999	          0.01207438	          0.00999999	          0.00999999	          0.08835327	          0.06584955	          0.03876084	
          1.34421994	         -4.03661907	         -1.55934833	          7.31226207	          1.69701767	          0.98862944	          0.00370522	         26.86043336	         -0.25192142	         -9.00954475	        -19.30526074	          4.23765473	          0.31342191	         -9.79786182	         -5.87990666	         -8.64331015	        -31.94128869	         -7.27788556	         36.01874800	        -10.52381239	          2.18824283	         -7.51797566	          0.01218570	          0.03442393	          0.01000000	          0.19174755	          0.21962419	          0.05713028	          0.02695829	          0.13104737	          0.02971962	          0.01000000	          0.27392452	          0.01000000	          0.01000000	          0.23905241	          0.09305626	          0.05619336	          0.05211032	          0.00999999	          0.21541929	          0.02125522	          0.03382310	          0.00999999	          0.01000004	          0.01000000	          0.00999999	          0.07317397	          0.05453643	          0.12835694	
          1.35666642	         -3.98072186	         -1.49073844	          7.05953380	          1.71406233	          0.99134193	          0.00450999	         26.07064500	         -0.10277199	         -8.85134966	        -19.90918675	          4.94641263	          0.60041277	         -7.57596672	         -6.39343095	         -9.15222176	        -37.15247579	         -8.56854616	         31.44905340	        -10.42996672	          2.45284908	         -7.37228435	          0.01009218	          0.02850982	          0.01000000	          0.15880491	          0.18410100	          0.05138995	          0.02232680	          0.10853315	          0.02461372	          0.01000000	          0.27398154	          0.01000000	          0.01000000	          0.19798264	          0.12077978	          0.07436634	          0.10606923	          0.01457914	          0.17840973	          0.01760352	          0.03812939	          0.01000007	          0.01000003	          0.01000000	          0.00999999	          0.06060250	          0.04516694	          0.20233443	
